<svg id="Layer_1" data-name="Layer 1" xmlns="http://www.w3.org/2000/svg" viewBox="0 0 5854.7509 5862.4283"><defs><style>.cls-1{fill:#fff;}.cls-2{fill:#ededed;}</style></defs><path class="cls-1" d="M315.0982,3316.7" transform="translate(-0.006 -38.7836)"/><path class="cls-2" d="M1902.0878,245.7874s.15,7.4459.8035,21.6851c705.4983,894.26,1554.9816,1276.4163,2261.8864,1429.3917-89.3142-407.081-124.0706-874.2574-70.09-1405.3965C4094.6874,291.4677,3226.7836-245.2714,1902.0878,245.7874Z" transform="translate(-0.006 -38.7836)"/><path class="cls-2" d="M4164.7777,1696.8642C4510.0306,3270.756,5670.6134,3946.232,5670.6134,3946.232s456.7921-967.3136-68.5208-2200.6486C5602.0926,1745.5834,4977.7217,1872.768,4164.7777,1696.8642Z" transform="translate(-0.006 -38.7836)"/><path class="cls-1" d="M1902.8913,267.4725c13.41,292.0008,239.6653,3439.207,3767.7221,3678.76,0,0-1160.5828-675.476-1505.8357-2249.3678C3457.8729,1543.8888,2608.39,1161.7323,1902.8913,267.4725Z" transform="translate(-0.006 -38.7836)"/><path class="cls-2" d="M3952.675,5694.208s-.1505-7.4459-.8035-21.685c-705.4983-894.26-1554.9816-1276.4164-2261.8864-1429.3918,89.3143,407.081,124.0706,874.2575,70.09,1405.3965C1760.0754,5648.5277,2627.9792,6185.2668,3952.675,5694.208Z" transform="translate(-0.006 -38.7836)"/><path class="cls-2" d="M1689.9851,4243.1312C1344.7322,2669.24,184.15,1993.7634,184.15,1993.7634S-272.6427,2961.077,252.67,4194.412C252.67,4194.412,877.0411,4067.2274,1689.9851,4243.1312Z" transform="translate(-0.006 -38.7836)"/><path class="cls-1" d="M3951.8715,5672.523c-13.41-292.0009-239.6653-3439.207-3767.722-3678.76,0,0,1160.5827,675.4761,1505.8356,2249.3678C2396.89,4396.1066,3246.3732,4778.2632,3951.8715,5672.523Z" transform="translate(-0.006 -38.7836)"/></svg>