<svg id="Layer_1" data-name="Layer 1" xmlns="http://www.w3.org/2000/svg" viewBox="0 0 5856.5098 983.2293"><defs><style>.cls-1{fill:#fff;}.cls-2{fill:#ededed;}</style></defs><path class="cls-1" d="M52.8452,549.7717" transform="translate(0)"/><path class="cls-2" d="M319.0049,34.7381s.0252,1.2488.1347,3.6369c118.3216,149.9794,260.7915,214.0723,379.349,239.7283C683.5094,209.83,677.68,131.4785,686.7335,42.3993,686.7335,42.3993,541.1743-47.6191,319.0049,34.7381Z" transform="translate(0)"/><path class="cls-2" d="M698.4886,278.1033c57.9036,263.963,252.549,377.2494,252.549,377.2494s76.61-162.2316-11.4918-369.0785C939.5458,286.2742,834.83,307.6048,698.4886,278.1033Z" transform="translate(0)"/><path class="cls-1" d="M319.14,38.375c2.2491,48.9725,40.1952,576.8015,631.898,616.9777,0,0-194.6454-113.2864-252.549-377.2494C579.9311,252.4473,437.4612,188.3544,319.14,38.375Z" transform="translate(0)"/><path class="cls-2" d="M662.9161,948.512s-.0252-1.2488-.1347-3.6369C544.46,794.8956,401.99,730.8028,283.4324,705.1467c14.9792,68.273,20.8083,146.6248,11.7551,235.7041C295.1875,940.8508,440.7467,1030.8692,662.9161,948.512Z" transform="translate(0)"/><path class="cls-2" d="M283.4324,705.1467C225.5288,441.1838,30.8834,327.8973,30.8834,327.8973s-76.61,162.2316,11.4918,369.0786C42.3752,696.9759,147.0907,675.6453,283.4324,705.1467Z" transform="translate(0)"/><path class="cls-1" d="M662.7814,944.8751c-2.2491-48.9725-40.1952-576.8016-631.898-616.9778,0,0,194.6454,113.2865,252.549,377.2494C401.99,730.8028,544.46,794.8956,662.7814,944.8751Z" transform="translate(0)"/><path class="cls-1" d="M1234.0692,96.3541h190.2354V924.0054H1234.0692Z" transform="translate(0)"/><path class="cls-1" d="M1579.9421,271.7661h184.0607V366.885q35.8125-50.6383,88.3229-79.0591,52.4913-28.4033,119.2075-28.4129,51.8814,0,93.8825,17.9126,41.9806,17.9217,71.0291,49.4123,29.0113,31.4989,45.0892,75.3535,16.04,43.8624,16.0586,96.97V924.0054H2013.5331V563.2975q0-55.5888-31.5-88.3242-31.5009-32.7148-79.6779-32.7347-30.891,0-55.5882,12.9706a145.8124,145.8124,0,0,0-43.235,34.5875,154.884,154.884,0,0,0-28.413,49.4123,196.9939,196.9939,0,0,0-11.1166,58.6761v326.12H1579.9421Z" transform="translate(0)"/><path class="cls-1" d="M2586.712,86.4714V271.7661h148.2355V420.0028H2586.712V680.6522q0,49.4187,24.0886,67.3224,24.0879,17.9215,67.3236,17.9126,12.3343,0,26.5589-1.2352,14.1871-1.2159,30.2644-3.7055V927.7109q-56.8337,7.411-106.2356,7.4111-112.4223,0-169.236-47.557-56.8337-47.5427-56.8233-159.9734V420.0028H2297.6509V271.7661h105.0017V86.4714Z" transform="translate(0)"/><path class="cls-1" d="M2832.5291,101.2948q0-41.98,30.2657-71.6467Q2893.0489,0,2938.7659,0q44.47,0,74.7347,29.6481,30.2561,29.6462,30.2657,71.6467,0,43.2545-30.2657,72.8832-30.283,29.6463-74.7347,29.6469-45.717,0-75.9711-29.6469Q2832.51,144.53,2832.5291,101.2948Zm13.5882,170.4713h184.0608V924.0054H2846.1173Z" transform="translate(0)"/><path class="cls-1" d="M3135.1617,597.8851q0-72.8717,25.9413-135.2648,25.9407-62.3629,71.6467-107.4708,45.6881-45.0781,108.09-70.4128,62.363-25.3038,136.5-25.3237,66.7072,0,124.1482,20.383t101.2948,57.4409a314.107,314.107,0,0,1,72.2644,88.3242q28.4033,51.2752,35.824,113.03H3616.9285q-13.6082-43.2254-50.03-71.0291-36.4514-27.7955-88.3242-27.7954-34.5966,0-62.3816,12.9707a156.6153,156.6153,0,0,0-48.1771,34.5888,152.6378,152.6378,0,0,0-31.5009,50.6474,169.56,169.56,0,0,0-11.1166,61.1464,166.0974,166.0974,0,0,0,11.1166,59.9139,145.5885,145.5885,0,0,0,31.5009,50.03,161.4837,161.4837,0,0,0,48.1771,33.97q27.7933,12.9694,62.3816,12.9694,51.8832,0,87.7066-27.1765,35.8143-27.1545,50.6474-67.94h193.9422q-8.6559,60.5393-37.0592,111.1763a300.1485,300.1485,0,0,1-72.2643,86.47q-43.8644,35.8434-100.6773,56.2083-56.8335,20.38-123.5306,20.38-74.1183,0-137.1176-25.3238-63.0017-25.3018-108.09-70.41-45.1071-45.08-71.0291-106.8532Q3135.16,670.776,3135.1617,597.8851Z" transform="translate(0)"/><path class="cls-1" d="M4561.9293,924.0054H4377.8686V847.4166a201.5833,201.5833,0,0,1-73.4995,64.237q-45.109,23.4491-114.2655,23.4684-69.1969,0-126.6186-25.3238-57.4414-25.3018-98.2069-69.7926-40.7646-44.47-63.618-106.2356-22.872-61.755-22.8521-134.65,0-74.1183,22.8521-135.8823,22.845-61.7552,64.2356-107.4708a289.1385,289.1385,0,0,1,98.8245-71.03q57.4416-25.3038,125.3834-25.3237,69.166,0,114.2655,24.0885a202.9714,202.9714,0,0,1,73.4995,66.0885V271.7661h184.0607ZM4377.8686,575.6493q-6.1953-56.8028-48.1758-95.734-42.0116-38.912-106.2368-38.9119-35.8414,0-64.2357,12.353a146.6244,146.6244,0,0,0-48.7934,33.97,144.6134,144.6134,0,0,0-30.8833,50.6474,178.2924,178.2924,0,0,0-10.5,61.1464,161.267,161.267,0,0,0,11.1179,59.2963,151.8511,151.8511,0,0,0,30.8833,49.4122q19.7455,21.0174,48.7934,33.3524,29.0112,12.3633,63.6181,12.3518,32.1087,0,58.6773-10.4991a166.04,166.04,0,0,0,46.9419-27.794,131.4343,131.4343,0,0,0,32.7348-42.0012,165.3749,165.3749,0,0,0,16.0586-51.8826Z" transform="translate(0)"/><path class="cls-1" d="M4951.0411,86.4714V271.7661h148.2354V420.0028H4951.0411V680.6522q0,49.4187,24.0885,67.3224,24.0879,17.9215,67.3236,17.9126,12.3345,0,26.5589-1.2352,14.1871-1.2159,30.2644-3.7055V927.7109q-56.8335,7.411-106.2355,7.4111-112.4225,0-169.2361-47.557-56.8335-47.5427-56.8233-159.9734V420.0028H4661.98V271.7661h105.0016V86.4714Z" transform="translate(0)"/><path class="cls-1" d="M5364.86,638.6511q9.8736,58.0764,50.6474,94.5013,40.7647,36.4494,105,36.44a140.3345,140.3345,0,0,0,72.8831-19.7654q33.3537-19.7435,50.6475-48.177h198.8828q-12.3614,53.128-41.3823,96.3541a282.5794,282.5794,0,0,1-71.6467,73.5008q-42.6194,30.285-96.3541,46.9419-53.736,16.6749-116.7359,16.6749-74.1183,0-136.5-25.3238-62.3937-25.3018-107.472-70.41-45.1071-45.08-71.0291-106.8532-25.9427-61.7588-25.9413-134.65,0-72.8717,25.3237-135.2648,25.3038-62.3629,70.4116-107.4708,45.0781-45.0781,106.8531-70.4128,61.7569-25.3038,135.8837-25.3237,69.168,0,127.8537,20.383,58.6573,20.3823,103.1476,58.06a302.6372,302.6372,0,0,1,72.2643,90.1769q27.7955,52.5183,35.2064,115.4994,2.4608,28.4322,3.088,42.6188.6079,14.2161.6176,21.6182,0,14.8221-1.2352,30.882Zm292.7666-101.2949q-8.6559-49.3935-46.9419-80.9118-38.304-31.5009-93.8825-31.5009-58.0783,0-95.1176,30.8833-37.0593,30.891-50.6475,81.5294Z" transform="translate(0)"/></svg>