<svg id="Layer_1" data-name="Layer 1" xmlns="http://www.w3.org/2000/svg" viewBox="0 0 5856.5098 983.3626"><defs><style>.cls-1{fill:#111;}</style></defs><path d="M52.8443,560.154" transform="translate(0 -10.2412)"/><path class="cls-1" d="M318.9992,45.13s.0252,1.2488.1347,3.6368c118.32,149.9768,260.7868,214.0685,379.3422,239.7241-14.979-68.2718-20.808-146.6222-11.7549-235.7C686.7212,52.7907,541.1646-37.2261,318.9992,45.13Z" transform="translate(0 -10.2412)"/><path class="cls-1" d="M698.4761,288.4905c57.9025,263.9582,252.5445,377.2426,252.5445,377.2426s76.6088-162.2286-11.4917-369.0719C939.5289,296.6612,834.8153,317.9914,698.4761,288.4905Z" transform="translate(0 -10.2412)"/><path d="M319.1339,48.7664c2.249,48.9716,40.1944,576.7913,631.8867,616.9667,0,0-194.642-113.2844-252.5445-377.2426C579.9207,262.8349,437.4534,198.7432,319.1339,48.7664Z" transform="translate(0 -10.2412)"/><path class="cls-1" d="M662.9042,958.8871s-.0252-1.2487-.1347-3.6368C544.45,805.2735,401.9827,741.1819,283.4273,715.5263c14.9789,68.2717,20.8079,146.6221,11.7549,235.7C295.1822,951.2261,440.7388,1041.2429,662.9042,958.8871Z" transform="translate(0 -10.2412)"/><path class="cls-1" d="M283.4273,715.5263C225.5248,451.568,30.8828,338.2836,30.8828,338.2836S-45.7261,500.5123,42.3745,707.3555C42.3745,707.3555,147.088,686.0253,283.4273,715.5263Z" transform="translate(0 -10.2412)"/><path d="M662.77,955.25C660.52,906.2787,622.5751,378.4591,30.8828,338.2836c0,0,194.642,113.2844,252.5445,377.2427C401.9827,741.1819,544.45,805.2735,662.77,955.25Z" transform="translate(0 -10.2412)"/><path d="M1234.067,106.62h190.2622V934.3811H1234.067Z" transform="translate(0 -10.2412)"/><path d="M1579.93,282.0489h184.0855V377.18q35.8282-50.6382,88.3225-79.0653,52.51-28.4115,119.2377-28.4193,51.87,0,93.8832,17.9141,41.989,17.914,71.04,49.43,29.0274,31.5156,45.1012,75.3688,16.0658,43.861,16.0658,96.9636V934.3811H2013.5805V573.619q0-55.59-31.5156-88.3225-31.5155-32.7477-79.6814-32.7477-30.8994,0-55.6063,12.97a145.9776,145.9776,0,0,0-43.2372,34.596,155.1063,155.1063,0,0,0-28.4192,49.43,197.6459,197.6459,0,0,0-11.1055,58.671V934.3811H1579.93Z" transform="translate(0 -10.2412)"/><path d="M2586.7171,96.7312V282.0489h148.2573V430.3063H2586.7171V690.9927q0,49.43,24.0908,67.3279,24.075,17.9142,67.3279,17.9141,12.3456,0,26.5552-1.2321,14.2176-1.2323,30.2834-3.6966V938.0935q-56.8466,7.3932-106.2524,7.4089-112.437,0-169.2677-47.5655-56.8227-47.5577-56.8228-159.9947V430.3063h-105.02V282.0489h105.02V96.7312Z" transform="translate(0 -10.2412)"/><path d="M2832.481,111.5491q0-41.9892,30.2676-71.6564,30.2834-29.6436,75.9848-29.6515,44.4772,0,74.7527,29.6515,30.26,29.6672,30.2675,71.6564,0,43.2687-30.2675,72.9043-30.2834,29.6673-74.7527,29.6515-45.7094,0-75.9848-29.6515Q2832.4652,154.81,2832.481,111.5491Zm13.6015,170.5H3030.168V934.3811H2846.0825Z" transform="translate(0 -10.2412)"/><path d="M3135.1092,608.215q0-72.8885,25.9391-135.2719,25.947-62.3913,71.6564-107.4846t108.1007-70.4242q62.3913-25.3309,136.5357-25.3388,66.7039,0,124.1507,20.3942,57.4389,20.3786,101.3079,57.4389a313.6838,313.6838,0,0,1,72.2882,88.3383q28.4115,51.278,35.8282,113.0452H3616.9415q-13.6014-43.2213-50.03-71.04-36.4443-27.7953-88.3383-27.8032-34.596,0-62.3992,12.9854a156.643,156.643,0,0,0-48.1816,34.596,152.3794,152.3794,0,0,0-31.5,50.646,169.3281,169.3281,0,0,0-11.1213,61.1512,165.8671,165.8671,0,0,0,11.1213,59.919,145.5854,145.5854,0,0,0,31.5,50.0458,161.9635,161.9635,0,0,0,48.1816,33.98q27.7953,12.9854,62.3992,12.97,51.894,0,87.7222-27.1712,35.8282-27.1793,50.646-67.96h193.9746q-8.6727,60.543-37.0761,111.197a299.8716,299.8716,0,0,1-72.2725,86.4742q-43.8612,35.8282-100.6918,56.2225-56.8227,20.3547-123.5346,20.3784-74.1444,0-137.1518-25.323-63.0075-25.331-108.1007-70.4242t-71.04-106.8685Q3135.1013,681.1115,3135.1092,608.215Z" transform="translate(0 -10.2412)"/><path d="M4561.9625,934.3811H4377.877V857.78a201.5592,201.5592,0,0,1-73.5205,64.2475q-45.0933,23.459-114.2774,23.4747-69.192,0-126.6309-25.323-57.4624-25.331-98.2273-69.8081-40.7569-44.4773-63.6156-106.2524-22.8666-61.7516-22.8587-134.6717,0-74.1207,22.8587-135.888,22.8427-61.7752,64.2316-107.4846a288.8563,288.8563,0,0,1,98.8435-71.04q57.4389-25.3309,125.3987-25.3388,69.192,0,114.2774,24.0908a203,203,0,0,1,73.5205,66.0958V282.0489h184.0855ZM4377.877,585.9725q-6.1847-56.8227-48.1817-95.7314-42.0127-38.9087-106.2524-38.9245-35.8281,0-64.2474,12.3535a146.6277,146.6277,0,0,0-48.8136,33.98,144.59,144.59,0,0,0-30.8836,50.646,178.5249,178.5249,0,0,0-10.4894,61.1512A161.0266,161.0266,0,0,0,4080.13,668.75a151.99,151.99,0,0,0,30.8836,49.43q19.7623,20.9946,48.7977,33.348,29.0276,12.3693,63.6314,12.3535,32.108,0,58.6711-10.4894a166.4268,166.4268,0,0,0,46.9494-27.8032,131.7594,131.7594,0,0,0,32.7478-42.0049,165.3988,165.3988,0,0,0,16.0658-51.894Z" transform="translate(0 -10.2412)"/><path d="M4951.0037,96.7312V282.0489H5099.261V430.3063H4951.0037V690.9927q0,49.43,24.0908,67.3279,24.075,17.9142,67.328,17.9141,12.3454,0,26.5552-1.2321,14.2174-1.2323,30.2833-3.6966V938.0935q-56.8464,7.3932-106.2524,7.4089-112.437,0-169.2677-47.5655-56.8227-47.5577-56.8227-159.9947V430.3063h-105.02V282.0489h105.02V96.7312Z" transform="translate(0 -10.2412)"/><path d="M5364.8041,648.9878q9.8575,58.0787,50.6461,94.515,40.7569,36.4443,105.02,36.4443a140.4365,140.4365,0,0,0,72.8885-19.7624q33.3639-19.7623,50.6619-48.1816h198.9033q-12.3693,53.1261-41.3888,96.3633a283.0521,283.0521,0,0,1-71.6564,73.5046q-42.6289,30.2834-96.3633,46.95-53.7423,16.6819-116.7576,16.6819-74.1207,0-136.52-25.323-62.3913-25.331-107.4846-70.4242t-71.04-106.8685q-25.947-61.7752-25.9391-134.6717,0-72.8885,25.323-135.2719,25.3073-62.3913,70.4242-107.4846,45.0933-45.0933,106.8685-70.4242,61.7514-25.3309,135.9038-25.3388,69.1685,0,127.8631,20.3942,58.671,20.3786,103.1561,58.0708a302.6392,302.6392,0,0,1,72.2883,90.1866q27.7953,52.51,35.2121,115.51,2.4644,28.435,3.0805,42.6368.6161,14.2174.6161,21.6106,0,14.8337-1.2322,30.8837ZM5657.6064,547.68q-8.6727-49.4059-46.9495-80.9136-38.2924-31.5155-93.8989-31.5155-58.0787,0-95.1311,30.8836-37.06,30.9-50.646,81.5455Z" transform="translate(0 -10.2412)"/></svg>